<?xml version="1.0" standalone="no"?>
<!DOCTYPE svg PUBLIC "-//W3C//DTD SVG 20010904//EN"
 "http://www.w3.org/TR/2001/REC-SVG-20010904/DTD/svg10.dtd">
<svg version="1.0" xmlns="http://www.w3.org/2000/svg"
 width="1408.000000pt" height="768.000000pt" viewBox="0 0 1408.000000 768.000000"
 preserveAspectRatio="xMidYMid meet">

<g transform="translate(0.000000,768.000000) scale(0.100000,-0.100000)"
fill="#000000" stroke="none">
<path d="M7409 6306 c-443 -64 -841 -271 -1134 -589 -136 -147 -265 -346 -335
-516 l-30 -74 31 -62 c16 -34 33 -82 37 -107 l7 -45 218 141 219 141 41 80
c139 267 377 513 642 664 170 97 390 169 589 192 139 16 394 6 520 -21 208
-44 372 -109 546 -215 112 -68 147 -94 260 -194 l85 -76 -62 70 c-271 308
-645 521 -1044 596 -148 27 -450 35 -590 15z"/>
<path d="M7748 6013 c7 -3 16 -2 19 1 4 3 -2 6 -13 5 -11 0 -14 -3 -6 -6z"/>
<path d="M7561 5989 c-46 -10 -87 -21 -90 -25 -6 -6 43 1 83 13 14 4 16 2 10
-8 -6 -11 -4 -11 9 0 10 8 41 20 70 27 29 7 41 12 27 12 -14 0 -63 -8 -109
-19z"/>
<path d="M8103 6003 c9 -2 23 -2 30 0 6 3 -1 5 -18 5 -16 0 -22 -2 -12 -5z"/>
<path d="M8229 5979 c47 -10 86 -17 89 -15 5 5 -132 36 -155 35 -10 0 20 -9
66 -20z"/>
<path d="M7620 5971 c0 -5 5 -13 10 -16 6 -3 10 -2 10 4 0 5 -4 13 -10 16 -5
3 -10 2 -10 -4z"/>
<path d="M7226 5869 c-54 -28 -96 -52 -94 -55 3 -2 52 21 109 51 57 30 100 54
94 54 -5 0 -54 -23 -109 -50z"/>
<path d="M7755 5869 c83 -4 174 -12 204 -18 66 -14 74 -14 66 -1 -3 6 -17 10
-31 10 -18 0 -23 4 -18 13 6 9 5 9 -8 -1 -11 -9 -28 -10 -68 -2 -29 5 -107 9
-174 8 l-121 -1 150 -8z"/>
<path d="M8570 5861 c0 -6 6 -11 14 -11 8 0 18 -5 22 -12 4 -6 3 -8 -4 -4 -6
3 -14 1 -18 -5 -5 -9 0 -10 15 -6 24 6 71 -10 71 -24 0 -5 -8 -6 -17 -3 -10 3
-6 -2 10 -11 15 -8 27 -20 27 -25 0 -6 8 -10 18 -10 14 0 12 4 -8 20 -35 27
-20 25 37 -6 46 -24 47 -24 21 -2 -40 33 -188 111 -188 99z"/>
<path d="M7458 5853 c6 -2 18 -2 25 0 6 3 1 5 -13 5 -14 0 -19 -2 -12 -5z"/>
<path d="M7330 5830 c-36 -11 -70 -18 -77 -15 -6 2 -14 -1 -16 -8 -3 -9 -7 -9
-18 0 -10 8 -19 9 -29 1 -12 -8 -12 -9 2 -4 31 9 29 -11 -2 -24 -58 -24 -23
-20 43 5 37 14 100 34 140 44 39 11 61 20 47 20 -14 0 -54 -9 -90 -19z"/>
<path d="M8110 5816 c0 -2 7 -7 16 -10 8 -3 12 -2 9 4 -6 10 -25 14 -25 6z"/>
<path d="M7019 5743 c-13 -16 -12 -17 4 -4 9 7 17 15 17 17 0 8 -8 3 -21 -13z"/>
<path d="M7838 5733 c7 -3 16 -2 19 1 4 3 -2 6 -13 5 -11 0 -14 -3 -6 -6z"/>
<path d="M6917 5663 c-99 -84 -86 -103 22 -30 97 65 105 72 56 52 -22 -9 -51
-27 -65 -39 -62 -54 -58 -43 5 17 39 36 68 66 65 66 -3 1 -40 -29 -83 -66z"/>
<path d="M7563 5723 c9 -2 23 -2 30 0 6 3 -1 5 -18 5 -16 0 -22 -2 -12 -5z"/>
<path d="M7918 5723 c7 -3 16 -2 19 1 4 3 -2 6 -13 5 -11 0 -14 -3 -6 -6z"/>
<path d="M7465 5705 c-54 -17 -33 -18 30 -1 28 8 41 14 30 14 -11 0 -38 -5
-60 -13z"/>
<path d="M7968 5713 c7 -3 16 -2 19 1 4 3 -2 6 -13 5 -11 0 -14 -3 -6 -6z"/>
<path d="M8354 5708 c10 -7 53 -37 95 -66 66 -46 71 -48 38 -16 -22 20 -36 42
-33 50 3 8 -1 14 -10 14 -8 0 -12 -4 -9 -10 3 -6 -1 -7 -10 -3 -13 4 -14 7 -3
14 10 6 10 11 1 20 -10 10 -14 9 -19 -4 -5 -15 -9 -15 -37 -2 -18 9 -24 10
-13 3z"/>
<path d="M7345 5665 l-30 -14 30 6 c17 3 34 10 40 14 14 13 -5 10 -40 -6z"/>
<path d="M8470 5666 c0 -2 8 -10 18 -17 15 -13 16 -12 3 4 -13 16 -21 21 -21
13z"/>
<path d="M7550 5650 c-17 -6 -9 -7 25 -3 28 3 52 7 54 9 8 7 -54 2 -79 -6z"/>
<path d="M8514 5649 c-3 -6 -2 -15 3 -20 5 -5 9 -1 9 11 0 23 -2 24 -12 9z"/>
<path d="M7670 5630 c-12 -8 -11 -10 7 -10 12 0 25 5 28 10 8 13 -15 13 -35 0z"/>
<path d="M8225 5624 c11 -8 19 -19 18 -24 -2 -5 4 -7 12 -4 8 3 36 -6 61 -21
26 -15 44 -22 40 -16 -8 12 -128 81 -142 81 -5 0 0 -8 11 -16z"/>
<path d="M7398 5607 c-32 -12 -58 -25 -58 -29 0 -4 26 4 58 16 31 13 64 26 72
29 13 5 13 5 0 5 -8 0 -41 -9 -72 -21z"/>
<path d="M7230 5610 c-9 -6 -10 -10 -3 -10 6 0 15 5 18 10 8 12 4 12 -15 0z"/>
<path d="M7620 5610 c-8 -5 -10 -10 -5 -10 6 0 17 5 25 10 8 5 11 10 5 10 -5
0 -17 -5 -25 -10z"/>
<path d="M7683 5610 c-32 -13 -29 -22 3 -10 32 12 37 12 29 0 -4 -6 6 -7 27
-3 42 8 48 13 15 13 -14 0 -31 2 -39 4 -7 3 -23 1 -35 -4z"/>
<path d="M8965 5590 c16 -19 36 -42 45 -50 50 -50 79 -92 74 -107 -4 -13 -3
-15 4 -5 7 10 16 6 38 -20 49 -57 13 -7 -52 72 -34 41 -79 91 -101 110 l-38
35 30 -35z"/>
<path d="M5162 5565 c-40 -19 -71 -39 -67 -45 3 -5 21 -12 39 -16 30 -5 34
-10 40 -44 8 -49 45 -80 96 -80 47 0 80 33 87 89 4 26 11 41 22 43 12 3 6 14
-25 46 -54 54 -91 56 -192 7z"/>
<path d="M7183 5584 c-24 -17 -21 -39 7 -54 15 -8 17 -6 13 10 -3 11 -10 20
-16 20 -5 0 -2 9 8 20 21 24 18 25 -12 4z"/>
<path d="M7790 5596 c0 -2 14 -9 31 -15 27 -9 30 -9 19 4 -11 13 -50 22 -50
11z"/>
<path d="M8565 5552 c41 -44 45 -47 45 -34 0 5 -19 24 -42 42 l-43 33 40 -41z"/>
<path d="M7484 5535 c-38 -24 -65 -45 -61 -45 4 0 25 11 45 25 40 27 61 33 44
12 -6 -7 -7 -18 -3 -26 6 -9 11 -10 15 -2 4 6 1 11 -6 11 -10 0 -9 3 2 10 8 5
17 5 20 0 3 -4 21 0 40 11 20 10 28 18 18 19 -9 0 -20 -4 -23 -10 -3 -5 -11
-10 -17 -10 -7 0 -6 6 2 15 9 11 9 15 1 15 -7 0 -9 5 -6 10 10 16 2 12 -71
-35z m66 15 c0 -5 -7 -10 -16 -10 -8 0 -12 5 -9 10 3 6 10 10 16 10 5 0 9 -4
9 -10z"/>
<path d="M6779 5522 l-34 -37 35 30 c19 17 37 31 39 33 2 1 2 4 -1 7 -2 3 -20
-12 -39 -33z"/>
<path d="M7105 5527 c-31 -27 -35 -35 -22 -40 12 -4 14 -2 9 11 -6 16 -4 16
21 -1 34 -22 47 -22 42 3 -2 11 0 22 5 25 10 6 2 35 -9 35 -4 0 -25 -15 -46
-33z m45 3 c0 -5 -5 -10 -11 -10 -5 0 -7 5 -4 10 3 6 8 10 11 10 2 0 4 -4 4
-10z"/>
<path d="M7265 5540 c-3 -6 1 -7 9 -4 18 7 21 14 7 14 -6 0 -13 -4 -16 -10z"/>
<path d="M7230 5520 c-9 -17 -7 -20 15 -26 14 -4 29 -4 32 0 4 3 -4 6 -16 6
-18 0 -21 4 -16 20 8 26 -1 26 -15 0z"/>
<path d="M8180 5530 c-40 -7 -38 -8 22 -6 38 0 68 4 68 9 0 8 -25 7 -90 -3z"/>
<path d="M8444 5488 c40 -37 46 -46 32 -51 -10 -4 -26 -2 -36 3 -16 8 -18 8
-14 -5 4 -8 1 -15 -5 -15 -6 0 -11 6 -11 13 0 8 -7 14 -15 14 -19 0 -4 -20 39
-49 17 -12 28 -18 24 -14 -9 11 33 56 46 49 23 -13 -31 41 -69 69 -34 25 -32
23 9 -14z m6 -78 c0 -5 -2 -10 -4 -10 -3 0 -8 5 -11 10 -3 6 -1 10 4 10 6 0
11 -4 11 -10z"/>
<path d="M8108 5513 c7 -3 16 -2 19 1 4 3 -2 6 -13 5 -11 0 -14 -3 -6 -6z"/>
<path d="M9010 5502 c6 -13 14 -21 18 -18 3 4 -2 14 -12 24 -18 16 -18 16 -6
-6z"/>
<path d="M7988 5409 c2 -56 5 -99 7 -97 8 8 7 180 -1 188 -5 5 -8 -32 -6 -91z"/>
<path d="M8025 5492 c3 -8 6 -28 6 -45 2 -29 2 -29 8 8 5 31 11 41 31 46 20 6
17 7 -13 6 -26 -2 -36 -6 -32 -15z"/>
<path d="M7318 5493 c18 -2 45 -2 60 0 15 2 0 4 -33 4 -33 0 -45 -2 -27 -4z"/>
<path d="M7461 5454 c0 -11 3 -14 6 -6 3 7 2 16 -1 19 -3 4 -6 -2 -5 -13z"/>
<path d="M8355 5460 c3 -5 8 -10 11 -10 2 0 4 5 4 10 0 6 -5 10 -11 10 -5 0
-7 -4 -4 -10z"/>
<path d="M8670 5445 c13 -14 26 -25 28 -25 3 0 -5 11 -18 25 -13 14 -26 25
-28 25 -3 0 5 -11 18 -25z"/>
<path d="M7004 5439 c-3 -5 6 -9 20 -9 31 0 34 6 6 13 -11 3 -23 1 -26 -4z"/>
<path d="M7230 5439 c0 -7 -13 -10 -34 -7 -19 2 -32 0 -30 -4 3 -4 16 -8 29
-8 13 0 59 -11 102 -25 43 -13 70 -18 60 -11 -10 8 -15 20 -11 30 4 12 0 16
-15 16 -12 0 -21 5 -21 10 0 6 -7 10 -16 10 -8 0 -12 -5 -8 -11 5 -8 1 -8 -14
0 -26 14 -42 14 -42 0z"/>
<path d="M7083 5433 c15 -2 37 -2 50 0 12 2 0 4 -28 4 -27 0 -38 -2 -22 -4z"/>
<path d="M5062 5379 c-50 -25 -163 -145 -211 -224 -24 -40 -36 -73 -39 -109
-4 -48 -1 -56 27 -89 18 -20 49 -41 69 -48 20 -6 40 -13 44 -15 3 -2 -1 -26
-9 -53 l-16 -49 -68 -4 c-151 -11 -259 -129 -259 -283 0 -293 371 -375 508
-111 21 41 27 66 28 129 2 93 16 115 46 75 25 -36 64 -37 80 -4 8 18 8 48 0
107 l-10 82 54 141 c31 78 59 144 63 149 4 4 15 -1 24 -11 15 -17 15 -21 -6
-62 -26 -53 -35 -170 -18 -223 14 -42 70 -109 115 -137 49 -29 142 -44 194
-31 65 18 133 71 171 135 29 49 35 70 39 135 5 86 -11 138 -62 198 -79 94
-246 110 -344 32 l-27 -21 -33 38 -32 37 70 35 c56 27 70 38 70 57 0 35 -22
36 -116 5 -64 -22 -91 -27 -105 -20 -10 6 -44 41 -74 79 -74 91 -95 98 -173
60z m154 -195 c26 -19 59 -38 74 -41 32 -6 33 2 -23 -152 l-34 -95 -17 33
c-17 31 -63 58 -189 110 l-28 11 23 33 c34 48 122 137 136 137 6 0 33 -16 58
-36z m515 -114 c138 -71 124 -300 -23 -376 -155 -80 -325 64 -279 236 7 25 16
49 21 54 5 5 36 -17 75 -55 76 -73 90 -83 111 -75 29 11 12 42 -62 117 l-77
77 34 18 c76 39 129 40 200 4z m-641 -214 c31 -11 36 -19 47 -62 29 -124 5
-159 -62 -90 -22 23 -50 48 -63 56 -22 14 -23 17 -11 63 14 52 25 56 89 33z
m-190 -139 c0 -7 -13 -53 -30 -102 -33 -98 -37 -130 -16 -138 7 -3 58 17 111
45 110 56 120 54 111 -20 -19 -154 -175 -246 -306 -179 -126 63 -147 237 -42
340 54 53 172 90 172 54z m137 -67 c13 -18 9 -22 -46 -50 -33 -16 -62 -30 -65
-30 -4 0 31 117 40 131 6 10 50 -21 71 -51z"/>
<path d="M8768 5316 c31 -47 58 -83 60 -81 5 5 -83 139 -102 154 -8 7 11 -26
42 -73z"/>
<path d="M8585 5350 c10 -11 20 -20 23 -20 3 0 -3 9 -13 20 -10 11 -20 20 -23
20 -3 0 3 -9 13 -20z"/>
<path d="M4855 5309 c-16 -11 -76 -45 -133 -75 -57 -31 -102 -58 -100 -60 3
-2 48 11 102 29 91 30 100 35 132 79 19 27 33 48 31 47 -1 0 -15 -9 -32 -20z"/>
<path d="M6942 5309 c-78 -13 -196 -55 -282 -100 -141 -73 -297 -214 -518
-469 -278 -320 -396 -435 -568 -551 -155 -105 -337 -175 -527 -205 -124 -20
-429 -14 -546 10 -41 9 -76 14 -78 12 -6 -6 173 -73 267 -100 160 -45 285 -59
489 -53 206 6 305 22 496 84 131 42 258 104 375 183 124 84 146 103 355 308
124 123 219 207 275 244 47 31 86 56 86 55 1 -1 -9 -36 -24 -77 -33 -98 -41
-244 -18 -344 81 -346 454 -576 936 -576 233 0 358 24 767 146 487 145 704
176 973 139 58 -8 129 -21 158 -30 30 -9 56 -14 58 -12 3 2 -27 18 -65 35
-177 79 -319 111 -531 119 -182 7 -281 -3 -575 -57 -316 -58 -358 -63 -515
-64 -156 -1 -237 10 -365 51 -316 101 -515 333 -515 599 0 201 136 356 312
355 75 0 120 -15 181 -58 l49 -34 -7 33 c-14 63 -47 139 -79 181 -110 144
-334 214 -564 176z"/>
<path d="M8620 5305 c11 -14 12 -19 3 -22 -15 -5 -3 -34 28 -67 11 -11 19 -24
19 -30 0 -5 3 -7 6 -4 3 4 1 17 -6 30 -11 23 -11 23 7 2 10 -11 26 -31 36 -45
l18 -24 -12 25 c-18 38 -87 138 -101 146 -8 5 -7 0 2 -11z m34 -64 c-6 -6 -24
19 -24 34 1 6 7 1 15 -9 8 -11 12 -22 9 -25z"/>
<path d="M8830 5271 c0 -6 5 -13 10 -16 6 -3 10 1 10 9 0 9 -4 16 -10 16 -5 0
-10 -4 -10 -9z"/>
<path d="M9220 5260 c6 -11 13 -20 16 -20 2 0 0 9 -6 20 -6 11 -13 20 -16 20
-2 0 0 -9 6 -20z"/>
<path d="M8050 5254 c0 -7 11 -16 63 -55 42 -32 32 -17 -18 24 -25 21 -45 35
-45 31z"/>
<path d="M8511 5224 c0 -11 3 -14 6 -6 3 7 2 16 -1 19 -3 4 -6 -2 -5 -13z"/>
<path d="M8056 5216 c3 -8 13 -17 22 -21 13 -5 13 -2 -3 15 -21 24 -26 25 -19
6z"/>
<path d="M9250 5211 c0 -6 4 -13 10 -16 6 -3 7 1 4 9 -7 18 -14 21 -14 7z"/>
<path d="M8503 5165 c0 -22 2 -30 4 -17 2 12 2 30 0 40 -3 9 -5 -1 -4 -23z"/>
<path d="M7605 5180 c3 -5 11 -10 16 -10 6 0 7 5 4 10 -3 6 -11 10 -16 10 -6
0 -7 -4 -4 -10z"/>
<path d="M7814 5174 c-18 -14 -18 -15 4 -4 12 6 22 13 22 15 0 8 -5 6 -26 -11z"/>
<path d="M9271 5175 c0 -5 15 -41 34 -80 18 -38 33 -65 34 -60 0 6 -15 42 -34
80 -18 39 -33 66 -34 60z"/>
<path d="M7750 5144 c-24 -9 -29 -13 -14 -13 11 -1 29 6 40 14 22 17 20 17
-26 -1z"/>
<path d="M7775 5120 c-3 -5 -1 -10 4 -10 6 0 11 5 11 10 0 6 -2 10 -4 10 -3 0
-8 -4 -11 -10z"/>
<path d="M8224 5103 c24 -27 37 -33 65 -31 l36 1 -35 4 c-19 3 -48 16 -65 31
l-30 27 29 -32z"/>
<path d="M8338 5083 c6 -2 18 -2 25 0 6 3 1 5 -13 5 -14 0 -19 -2 -12 -5z"/>
<path d="M9280 5081 c0 -6 4 -13 10 -16 6 -3 7 1 4 9 -7 18 -14 21 -14 7z"/>
<path d="M7731 5070 c0 -8 6 -42 14 -75 8 -34 13 -44 10 -23 -4 37 8 60 18 36
3 -7 6 1 6 19 1 17 -4 35 -11 39 -8 5 -9 0 -6 -14 8 -28 -10 -18 -22 12 -5 12
-9 15 -9 6z"/>
<path d="M8473 5051 c27 -4 43 -14 57 -36 22 -33 27 -28 8 8 -18 31 -28 37
-68 35 l-35 -1 38 -6z"/>
<path d="M8388 5043 c7 -3 16 -2 19 1 4 3 -2 6 -13 5 -11 0 -14 -3 -6 -6z"/>
<path d="M8917 5030 c41 -149 52 -183 45 -135 -3 28 -6 70 -6 95 1 30 0 35 -4
15 l-4 -30 -19 40 c-11 22 -16 29 -12 15z"/>
<path d="M8972 4970 c0 -14 2 -19 5 -12 2 6 2 18 0 25 -3 6 -5 1 -5 -13z"/>
<path d="M8806 4946 c3 -28 0 -42 -12 -50 -14 -11 -15 -19 -3 -71 14 -61 26
-55 29 15 1 29 3 32 10 15 17 -39 10 9 -10 70 -16 49 -18 53 -14 21z m1 -118
c-3 -7 -5 -2 -5 12 0 14 2 19 5 13 2 -7 2 -19 0 -25z"/>
<path d="M4594 4834 c-76 -47 -143 -90 -149 -95 -5 -5 40 11 100 36 61 26 138
58 173 72 34 14 62 28 62 33 0 7 -33 40 -41 40 -3 0 -68 -39 -145 -86z"/>
<path d="M8206 4880 c-22 -56 -19 -65 5 -11 11 24 18 46 15 48 -2 2 -11 -14
-20 -37z"/>
<path d="M6111 4891 c-13 -10 -19 -21 -14 -24 6 -4 21 5 33 18 27 29 16 33
-19 6z"/>
<path d="M7772 4855 c0 -16 2 -22 5 -12 2 9 2 23 0 30 -3 6 -5 -1 -5 -18z"/>
<path d="M8656 4872 c-3 -6 0 -12 6 -15 7 -2 10 -8 6 -12 -5 -5 -18 0 -29 11
-22 19 -22 19 -11 -2 9 -17 7 -37 -8 -93 -23 -82 -24 -98 -4 -56 l15 30 -5
-33 c-4 -20 -2 -31 4 -27 6 3 10 1 10 -6 0 -25 11 0 30 67 11 39 15 70 9 72
-5 2 -9 8 -9 14 0 6 7 7 16 4 8 -3 25 3 36 14 12 11 25 20 29 20 7 0 28 -107
30 -156 l1 -29 7 30 c6 27 -13 152 -25 164 -3 3 -14 0 -24 -7 -28 -17 -49 -14
-26 3 24 18 13 20 -14 3 -17 -11 -22 -10 -29 1 -5 8 -11 9 -15 3z m13 -92 c0
-9 -4 -8 -9 5 -5 11 -9 27 -9 35 0 9 4 8 9 -5 5 -11 9 -27 9 -35z m-16 -55
c-3 -9 -8 -14 -10 -11 -3 3 -2 9 2 15 9 16 15 13 8 -4z"/>
<path d="M7805 4830 c-3 -5 1 -10 10 -10 9 0 13 5 10 10 -3 6 -8 10 -10 10 -2
0 -7 -4 -10 -10z"/>
<path d="M8842 4805 c0 -16 2 -22 5 -12 2 9 2 23 0 30 -3 6 -5 -1 -5 -18z"/>
<path d="M8972 4810 c0 -14 2 -19 5 -12 2 6 2 18 0 25 -3 6 -5 1 -5 -13z"/>
<path d="M9401 4814 c0 -11 3 -14 6 -6 3 7 2 16 -1 19 -3 4 -6 -2 -5 -13z"/>
<path d="M6019 4773 l-34 -38 38 34 c34 33 42 41 34 41 -2 0 -19 -17 -38 -37z"/>
<path d="M7191 4777 c-15 -39 -14 -45 13 -102 16 -32 25 -43 25 -30 1 17 3 17
11 5 9 -13 10 -13 10 0 0 10 7 7 20 -10 12 -15 7 2 -14 45 -18 39 -38 81 -43
95 l-11 25 -11 -28z m23 -35 c3 -5 -1 -9 -9 -9 -8 0 -12 4 -9 9 3 4 7 8 9 8 2
0 6 -4 9 -8z m36 -73 c0 -3 -7 -6 -15 -6 -17 0 -27 21 -18 43 5 14 8 12 19 -7
7 -13 13 -27 14 -30z"/>
<path d="M7840 4786 c0 -8 -6 -17 -12 -19 -7 -3 2 -6 20 -6 18 -1 40 6 48 14
14 13 13 15 -5 15 -12 0 -21 -4 -21 -10 0 -5 -4 -10 -10 -10 -5 0 -7 7 -4 15
4 8 1 15 -5 15 -6 0 -11 -6 -11 -14z"/>
<path d="M9412 4780 c-1 -8 5 -46 12 -85 9 -46 14 -58 14 -35 0 34 -25 150
-26 120z"/>
<path d="M7935 4750 c51 -11 88 -12 82 -2 -3 4 -31 8 -64 9 -55 1 -56 1 -18
-7z"/>
<path d="M8039 4737 c5 -5 24 -7 42 -5 33 3 33 4 -8 8 -23 3 -39 2 -34 -3z"/>
<path d="M8144 4739 c-4 -7 -3 -9 3 -6 6 4 14 0 17 -9 3 -8 2 -12 -4 -9 -16
10 -12 -1 26 -76 19 -39 34 -75 32 -80 -2 -6 -23 31 -47 81 -24 50 -46 89 -48
86 -3 -3 19 -54 49 -113 30 -60 57 -114 59 -120 3 -9 13 -10 31 -5 25 7 26 8
12 32 -14 23 -14 23 -9 3 4 -14 2 -23 -4 -23 -6 0 -11 6 -11 13 0 7 -12 37
-26 66 -26 56 -27 84 0 34 30 -55 15 -11 -19 57 -37 73 -49 87 -61 69z m54
-90 c-3 -8 -7 -3 -11 10 -4 17 -3 21 5 13 5 -5 8 -16 6 -23z m42 -127 c0 -15
-2 -15 -10 -2 -13 20 -13 33 0 25 6 -3 10 -14 10 -23z"/>
<path d="M8981 4734 c0 -11 3 -14 6 -6 3 7 2 16 -1 19 -3 4 -6 -2 -5 -13z"/>
<path d="M5964 4708 l-19 -23 23 19 c12 11 22 21 22 23 0 8 -8 2 -26 -19z"/>
<path d="M7684 4688 c-56 -62 -81 -96 -41 -55 41 40 64 44 31 4 -10 -13 -6
-10 9 6 43 44 44 25 0 -25 -21 -23 -27 -34 -14 -23 28 24 93 106 68 86 -13
-10 -17 -10 -17 -1 0 10 -3 10 -15 0 -20 -17 -19 -1 2 22 9 10 14 18 12 18 -3
0 -18 -15 -35 -32z"/>
<path d="M8992 4595 l-2 -61 68 -12 c38 -6 77 -14 88 -17 10 -3 6 1 -11 9 -16
8 -51 18 -78 22 -56 8 -73 22 -21 18 31 -2 34 -1 22 14 -8 10 -9 13 -1 9 6 -4
14 -3 17 2 3 5 -10 9 -29 8 -19 -1 -36 -6 -37 -11 0 -6 -4 9 -8 34 l-7 45 -1
-60z"/>
<path d="M8792 4600 c0 -14 2 -19 5 -12 2 6 2 18 0 25 -3 6 -5 1 -5 -13z"/>
<path d="M9442 4585 c0 -16 2 -22 5 -12 2 9 2 23 0 30 -3 6 -5 -1 -5 -18z"/>
<path d="M7395 4574 c28 -7 64 -13 80 -13 18 1 5 6 -35 14 -84 18 -109 17 -45
-1z"/>
<path d="M5819 4553 c-13 -16 -12 -17 4 -4 9 7 17 15 17 17 0 8 -8 3 -21 -13z"/>
<path d="M7622 4547 c-24 -26 -27 -44 -11 -67 8 -11 9 -8 4 14 -4 22 -1 34 16
52 12 13 20 24 17 24 -2 0 -14 -10 -26 -23z"/>
<path d="M7538 4553 c6 -2 18 -2 25 0 6 3 1 5 -13 5 -14 0 -19 -2 -12 -5z"/>
<path d="M8545 4550 c-3 -5 1 -10 10 -10 9 0 13 5 10 10 -3 6 -8 10 -10 10 -2
0 -7 -4 -10 -10z"/>
<path d="M8798 4553 c12 -2 32 -2 45 0 12 2 2 4 -23 4 -25 0 -35 -2 -22 -4z"/>
<path d="M7251 4504 c-1 -7 21 -26 47 -43 50 -32 82 -43 46 -16 -18 14 -18 14
6 15 l25 1 -23 10 c-13 5 -29 6 -34 2 -7 -4 -8 -1 -4 6 6 8 2 11 -10 9 -12 -2
-18 2 -16 11 3 12 0 12 -11 2 -12 -9 -16 -9 -20 1 -3 8 -6 9 -6 2z"/>
<path d="M9443 4479 c-1 -12 -7 -27 -13 -33 -8 -8 -9 -6 -5 7 4 10 2 17 -4 17
-6 0 -11 -4 -11 -10 0 -5 -8 -10 -17 -11 -11 0 -13 -3 -5 -6 6 -2 12 -9 12
-14 0 -5 -13 -3 -30 6 -16 8 -35 15 -42 15 -13 -1 109 -69 125 -70 4 0 7 27 7
60 0 33 -4 60 -8 60 -4 0 -8 -10 -9 -21z m-8 -67 c-3 -3 -11 0 -18 7 -9 10 -8
11 6 5 10 -3 15 -9 12 -12z"/>
<path d="M6489 4358 c-279 -287 -489 -429 -774 -524 -116 -38 -100 -42 82 -19
219 29 440 100 590 189 l76 46 66 -63 c150 -143 311 -225 534 -273 107 -22
133 -18 64 10 -299 123 -497 375 -526 669 l-8 72 -104 -107z"/>
<path d="M8671 4436 c2 -2 69 -5 149 -8 85 -3 122 -2 90 2 -56 8 -247 13 -239
6z"/>
<path d="M8563 4423 c9 -2 25 -2 35 0 9 3 1 5 -18 5 -19 0 -27 -2 -17 -5z"/>
<path d="M8450 4413 c-65 -11 -321 -76 -317 -79 3 -3 49 6 103 20 95 23 169
39 244 51 19 3 36 8 39 11 5 5 -33 3 -69 -3z"/>
<path d="M8998 4413 c7 -3 16 -2 19 1 4 3 -2 6 -13 5 -11 0 -14 -3 -6 -6z"/>
<path d="M7465 4394 c28 -7 55 -13 60 -13 17 2 -69 27 -90 27 -11 0 3 -6 30
-14z"/>
<path d="M9188 4363 c31 -16 46 -38 18 -27 -8 3 -17 0 -22 -7 -4 -8 -3 -10 4
-5 6 4 21 2 32 -4 16 -9 25 -8 38 2 10 8 13 9 9 1 -4 -6 -3 -14 3 -18 5 -3 10
-1 10 5 0 8 9 10 25 6 49 -12 24 3 -55 33 -86 33 -115 40 -62 14z"/>
<path d="M7307 4318 c12 -13 37 -32 55 -42 l33 -19 -18 21 c-19 20 -18 21 5
16 24 -4 21 -3 -52 28 l-45 19 22 -23z"/>
<path d="M8098 4323 c7 -3 16 -2 19 1 4 3 -2 6 -13 5 -11 0 -14 -3 -6 -6z"/>
<path d="M8058 4313 c7 -3 16 -2 19 1 4 3 -2 6 -13 5 -11 0 -14 -3 -6 -6z"/>
<path d="M9347 4299 c7 -7 15 -10 18 -7 3 3 -2 9 -12 12 -14 6 -15 5 -6 -5z"/>
<path d="M7935 4290 c-27 -7 -27 -8 -5 -8 14 0 36 4 50 8 20 6 21 8 5 8 -11 0
-33 -4 -50 -8z"/>
<path d="M7863 4273 c9 -2 23 -2 30 0 6 3 -1 5 -18 5 -16 0 -22 -2 -12 -5z"/>
<path d="M9090 4270 c-9 -6 -10 -10 -3 -10 6 0 15 5 18 10 8 12 4 12 -15 0z"/>
<path d="M7508 4263 c6 -2 18 -2 25 0 6 3 1 5 -13 5 -14 0 -19 -2 -12 -5z"/>
<path d="M7793 4263 c9 -2 25 -2 35 0 9 3 1 5 -18 5 -19 0 -27 -2 -17 -5z"/>
<path d="M9164 4259 c26 -6 43 -6 50 1 7 7 -6 10 -39 9 l-50 -1 39 -9z"/>
<path d="M7603 4253 c26 -2 68 -2 95 0 26 2 4 3 -48 3 -52 0 -74 -1 -47 -3z"/>
<path d="M5428 4234 c-38 -20 -36 -28 2 -9 17 9 30 18 30 20 0 7 -1 6 -32 -11z"/>
<path d="M8808 4243 c23 -2 59 -2 80 0 20 2 1 4 -43 4 -44 0 -61 -2 -37 -4z"/>
<path d="M9018 4243 c23 -2 59 -2 80 0 20 2 1 4 -43 4 -44 0 -61 -2 -37 -4z"/>
<path d="M8650 4230 c-50 -11 1 -11 60 -1 41 8 42 8 10 8 -19 0 -51 -3 -70 -7z"/>
<path d="M9153 4233 c9 -2 23 -2 30 0 6 3 -1 5 -18 5 -16 0 -22 -2 -12 -5z"/>
<path d="M9505 4205 c31 -29 34 -33 12 -20 -30 17 -53 12 -27 -6 11 -8 4 -9
-25 -5 -33 5 -27 1 35 -24 88 -35 88 -35 66 -11 -10 11 -24 17 -31 15 -7 -3
-15 -1 -18 3 -8 13 35 9 62 -6 43 -24 13 5 -51 48 l-63 43 40 -37z"/>
<path d="M5028 4214 c-38 -20 -36 -28 2 -9 17 9 30 18 30 20 0 7 -1 6 -32 -11z"/>
<path d="M8578 4213 c7 -3 16 -2 19 1 4 3 -2 6 -13 5 -11 0 -14 -3 -6 -6z"/>
<path d="M4778 4203 c7 -3 16 -2 19 1 4 3 -2 6 -13 5 -11 0 -14 -3 -6 -6z"/>
<path d="M7605 4190 c-4 -6 -21 -8 -41 -4 -19 3 -34 4 -34 0 0 -9 138 -48 152
-43 8 4 7 6 -4 6 -9 1 -29 6 -45 12 -20 7 -24 12 -14 18 8 6 9 11 3 15 -6 3
-14 2 -17 -4z"/>
<path d="M8418 4183 c7 -3 16 -2 19 1 4 3 -2 6 -13 5 -11 0 -14 -3 -6 -6z"/>
<path d="M9398 4183 c7 -3 16 -2 19 1 4 3 -2 6 -13 5 -11 0 -14 -3 -6 -6z"/>
<path d="M8368 4173 c7 -3 16 -2 19 1 4 3 -2 6 -13 5 -11 0 -14 -3 -6 -6z"/>
<path d="M8299 4166 c-2 -3 -33 -7 -69 -10 -36 -3 -83 -10 -105 -16 -22 -5
-58 -10 -80 -11 -30 -2 -33 -3 -13 -6 27 -4 224 21 288 36 30 8 31 9 9 10 -14
1 -28 -1 -30 -3z"/>
<path d="M4998 4143 c6 -2 18 -2 25 0 6 3 1 5 -13 5 -14 0 -19 -2 -12 -5z"/>
<path d="M7718 4133 c6 -2 18 -2 25 0 6 3 1 5 -13 5 -14 0 -19 -2 -12 -5z"/>
<path d="M5168 4123 c7 -3 16 -2 19 1 4 3 -2 6 -13 5 -11 0 -14 -3 -6 -6z"/>
<path d="M7761 4126 c2 -2 51 -7 109 -9 75 -4 91 -3 55 3 -52 9 -171 13 -164
6z"/>
<path d="M5128 4113 c7 -3 16 -2 19 1 4 3 -2 6 -13 5 -11 0 -14 -3 -6 -6z"/>
<path d="M5088 4103 c7 -3 16 -2 19 1 4 3 -2 6 -13 5 -11 0 -14 -3 -6 -6z"/>
<path d="M4578 4093 c6 -2 18 -2 25 0 6 3 1 5 -13 5 -14 0 -19 -2 -12 -5z"/>
<path d="M5028 4093 c6 -2 18 -2 25 0 6 3 1 5 -13 5 -14 0 -19 -2 -12 -5z"/>
<path d="M4658 4083 c6 -2 18 -2 25 0 6 3 1 5 -13 5 -14 0 -19 -2 -12 -5z"/>
<path d="M5145 3445 c-108 -21 -162 -39 -231 -81 -85 -51 -130 -99 -171 -182
-31 -62 -37 -86 -41 -156 -4 -69 -1 -90 18 -134 40 -93 125 -153 290 -202 58
-17 142 -42 187 -56 119 -36 162 -95 113 -157 -30 -38 -99 -57 -209 -57 -130
0 -218 21 -330 76 -51 25 -97 42 -101 37 -5 -4 -38 -62 -73 -128 -75 -138 -78
-126 41 -182 223 -105 562 -116 778 -27 69 29 160 101 196 156 55 83 73 142
72 233 -1 168 -87 256 -315 320 -227 65 -262 77 -285 100 -32 32 -31 75 2 114
68 81 311 82 489 2 37 -17 69 -30 71 -28 2 1 30 60 63 130 68 143 70 126 -24
170 -121 56 -383 81 -540 52z"/>
<path d="M9363 3443 c15 -2 37 -2 50 0 12 2 0 4 -28 4 -27 0 -38 -2 -22 -4z"/>
<path d="M9518 3443 c6 -2 18 -2 25 0 6 3 1 5 -13 5 -14 0 -19 -2 -12 -5z"/>
<path d="M9288 3433 c7 -3 16 -2 19 1 4 3 -2 6 -13 5 -11 0 -14 -3 -6 -6z"/>
<path d="M4231 3373 c-59 -290 -231 -1181 -231 -1195 0 -17 13 -18 174 -18
l175 0 10 53 c6 28 47 239 91 467 44 228 96 490 114 583 l32 167 -176 0 -177
0 -12 -57z"/>
<path d="M5885 3408 c-3 -13 -15 -74 -28 -135 l-23 -113 191 0 c105 0 194 -2
196 -5 3 -2 -14 -102 -37 -222 -78 -399 -144 -744 -144 -754 0 -5 72 -9 173
-9 l173 0 63 333 c35 182 78 404 95 492 l32 160 195 3 195 2 24 123 c12 67 25
128 28 135 3 9 -113 12 -562 12 l-566 0 -5 -22z"/>
<path d="M7156 3414 c-3 -9 -6 -23 -5 -32 0 -13 3 -11 11 6 6 12 18 22 27 22
14 0 14 -2 1 -10 -11 -7 -6 -10 20 -9 26 0 30 2 16 8 -35 14 7 21 119 21 96 0
104 -2 110 -21 9 -27 16 -20 8 9 -5 21 -9 22 -153 22 -126 0 -149 -2 -154 -16z"/>
<path d="M8305 3416 c-6 -8 -21 -29 -34 -47 l-24 -34 30 28 c22 20 32 25 35
15 4 -10 9 -9 22 5 21 20 28 21 44 5 9 -9 12 -8 12 5 0 13 -7 17 -30 15 -16
-1 -30 -6 -30 -10 0 -4 -5 -8 -11 -8 -6 0 -9 6 -7 13 3 8 49 14 164 17 l159 6
-160 2 c-127 2 -162 -1 -170 -12z"/>
<path d="M9199 3416 c-55 -16 -159 -62 -159 -72 0 -3 6 -4 14 -1 8 3 17 1 19
-6 3 -9 9 -9 25 0 12 7 28 10 37 7 8 -3 15 -1 15 5 0 6 7 11 15 11 8 0 15 -4
15 -10 0 -5 7 -7 15 -4 8 4 12 10 9 15 -3 5 5 13 18 18 21 9 9 17 -17 11 -20
-4 7 15 38 27 42 15 14 15 -44 -1z"/>
<path d="M7255 3400 c-3 -6 1 -7 9 -4 18 7 21 14 7 14 -6 0 -13 -4 -16 -10z"/>
<path d="M9718 3403 c7 -3 16 -2 19 1 4 3 -2 6 -13 5 -11 0 -14 -3 -6 -6z"/>
<path d="M9760 3385 c7 -9 15 -13 18 -11 2 3 14 1 25 -5 12 -7 17 -7 13 -1 -3
6 -20 15 -37 21 -27 9 -30 9 -19 -4z"/>
<path d="M7471 3365 c0 -5 6 -21 14 -35 8 -14 14 -20 14 -15 0 6 -6 21 -14 35
-8 14 -14 21 -14 15z"/>
<path d="M9740 3354 c0 -8 5 -12 10 -9 6 4 8 11 5 16 -9 14 -15 11 -15 -7z"/>
<path d="M7141 3344 c0 -11 3 -14 6 -6 3 7 2 16 -1 19 -3 4 -6 -2 -5 -13z"/>
<path d="M9830 3357 c0 -3 12 -12 26 -22 15 -9 23 -12 20 -6 -7 11 -46 35 -46
28z"/>
<path d="M8601 3334 c0 -11 3 -14 6 -6 3 7 2 16 -1 19 -3 4 -6 -2 -5 -13z"/>
<path d="M9004 3324 c-18 -14 -18 -15 4 -4 12 6 22 13 22 15 0 8 -5 6 -26 -11z"/>
<path d="M8209 3288 c-19 -24 -26 -37 -16 -29 20 16 61 71 54 71 -3 0 -20 -19
-38 -42z"/>
<path d="M8585 3313 c3 -12 1 -50 -6 -83 -6 -33 -9 -63 -6 -66 3 -3 10 26 17
65 9 52 9 74 0 88 -10 16 -10 16 -5 -4z"/>
<path d="M7126 3274 c-4 -20 -5 -38 -3 -40 3 -3 8 11 11 32 4 20 5 38 3 40 -3
3 -8 -11 -11 -32z"/>
<path d="M9931 3274 c19 -22 41 -51 49 -63 30 -46 41 -56 26 -25 -8 17 -36 53
-62 80 -36 38 -39 40 -13 8z"/>
<path d="M7150 3276 c0 -14 5 -26 10 -26 6 0 10 9 10 19 0 11 -4 23 -10 26 -6
4 -10 -5 -10 -19z"/>
<path d="M7501 3290 c0 -8 11 -35 24 -60 13 -25 24 -40 24 -35 0 17 -47 111
-48 95z"/>
<path d="M8949 3283 c-13 -16 -12 -17 4 -4 16 13 21 21 13 21 -2 0 -10 -8 -17
-17z"/>
<path d="M8863 3206 c-48 -54 -106 -143 -119 -181 -3 -11 13 10 36 48 38 62
60 86 47 52 -4 -8 -2 -17 3 -20 6 -4 10 1 10 9 0 9 6 16 14 16 23 0 28 17 10
35 -9 9 -14 19 -11 22 3 3 13 -2 22 -11 21 -21 24 -20 22 3 0 11 -6 17 -14 14
-7 -3 -13 0 -13 6 0 6 3 11 8 11 8 1 46 50 38 50 -2 0 -26 -24 -53 -54z m-16
-51 c0 -8 -4 -15 -9 -15 -10 0 -11 14 -1 23 9 10 10 9 10 -8z"/>
<path d="M8108 3158 c-122 -158 -161 -213 -136 -189 15 12 31 20 37 16 6 -3
11 -1 11 4 0 6 -5 11 -11 11 -5 0 -7 5 -3 11 5 8 10 6 16 -5 5 -9 13 -14 18
-11 6 4 5 14 -2 24 -9 15 -8 22 7 37 10 10 25 19 33 19 9 0 17 7 19 15 4 13 3
13 -6 0 -5 -8 -13 -11 -17 -7 -5 4 3 18 15 30 18 16 22 18 18 5 -3 -9 0 -23 6
-32 10 -14 12 -13 14 11 0 16 -4 31 -10 35 -6 4 3 25 26 57 57 79 36 60 -35
-31z"/>
<path d="M7111 3194 c0 -11 3 -14 6 -6 3 7 2 16 -1 19 -3 4 -6 -2 -5 -13z"/>
<path d="M9360 3202 c0 -6 8 -13 18 -16 9 -3 0 -4 -20 -3 -21 2 -35 1 -32 -2
3 -3 -10 -13 -28 -24 -18 -10 -24 -15 -13 -11 58 19 107 25 173 21 42 -2 68 0
60 4 -10 7 -10 9 2 10 10 0 8 3 -5 9 -11 4 -24 4 -29 -1 -6 -5 -17 -9 -25 -9
-14 0 -14 1 -1 10 11 7 4 10 -27 10 -23 0 -48 3 -57 6 -9 3 -16 1 -16 -4z"/>
<path d="M7101 3144 c0 -11 3 -14 6 -6 3 7 2 16 -1 19 -3 4 -6 -2 -5 -13z"/>
<path d="M7561 3148 c-1 -11 51 -129 56 -125 2 2 -10 33 -26 68 -16 35 -30 61
-30 57z"/>
<path d="M7081 3044 c-7 -36 -10 -68 -7 -71 2 -2 7 14 11 36 4 23 11 39 16 36
7 -5 2 53 -6 63 -2 2 -8 -27 -14 -64z"/>
<path d="M9657 3078 c18 -18 41 -52 51 -76 16 -36 20 -40 25 -23 3 12 2 19 -3
16 -4 -3 -11 2 -14 11 -4 12 -2 15 9 11 27 -11 25 11 -4 42 -20 21 -31 27 -34
19 -4 -9 -12 -6 -25 10 -11 12 -24 22 -28 22 -4 0 6 -15 23 -32z m58 -27 c3
-5 1 -12 -4 -15 -5 -3 -11 1 -15 9 -6 16 9 21 19 6z"/>
<path d="M8810 3090 c0 -5 5 -10 11 -10 5 0 7 5 4 10 -3 6 -8 10 -11 10 -2 0
-4 -4 -4 -10z"/>
<path d="M8050 3045 c-10 -12 -10 -15 3 -15 8 0 17 7 21 15 3 8 2 15 -3 15 -5
0 -14 -7 -21 -15z"/>
<path d="M9093 3046 c-4 -7 -14 -15 -22 -18 -12 -3 -12 -6 1 -18 12 -11 13
-20 5 -37 -6 -13 -14 -23 -19 -23 -5 0 -4 9 2 19 13 26 13 27 -10 27 -15 0
-18 -5 -14 -23 4 -14 2 -23 -5 -23 -6 0 -11 -7 -11 -16 0 -14 2 -15 17 -3 15
13 16 12 11 -8 -4 -13 -2 -23 3 -23 5 0 9 6 9 14 0 8 16 38 35 67 49 72 51 76
32 60 -15 -12 -17 -12 -11 3 7 19 -12 22 -23 2z"/>
<path d="M10065 2890 c0 -85 3 -141 6 -124 4 16 7 72 7 124 0 52 -3 108 -7
124 -3 17 -6 -39 -6 -124z"/>
<path d="M7620 3005 c0 -5 5 -17 10 -25 5 -8 10 -10 10 -5 0 6 -5 17 -10 25
-5 8 -10 11 -10 5z"/>
<path d="M7061 2944 c0 -11 3 -14 6 -6 3 7 2 16 -1 19 -3 4 -6 -2 -5 -13z"/>
<path d="M7641 2958 c-1 -12 31 -89 35 -85 3 2 -4 24 -15 48 -11 24 -20 41
-20 37z"/>
<path d="M9732 2930 c0 -14 2 -19 5 -12 2 6 2 18 0 25 -3 6 -5 1 -5 -13z"/>
<path d="M7854 2828 c-47 -62 -91 -113 -96 -113 -5 0 -24 33 -40 73 -17 40
-33 71 -35 68 -2 -2 7 -31 21 -65 14 -34 22 -69 19 -77 -4 -10 0 -12 11 -8 9
3 16 1 16 -6 0 -6 4 -9 9 -5 5 3 12 1 16 -5 10 -16 26 0 20 19 -3 10 1 24 10
31 10 8 15 9 15 1 0 -6 7 -11 15 -11 20 0 19 17 -1 28 -13 7 -5 23 51 95 36
48 64 87 61 87 -3 0 -44 -51 -92 -112z m-64 -128 c0 -5 -2 -10 -4 -10 -3 0 -8
5 -11 10 -3 6 -1 10 4 10 6 0 11 -4 11 -10z"/>
<path d="M8522 2920 c0 -14 2 -19 5 -12 2 6 2 18 0 25 -3 6 -5 1 -5 -13z"/>
<path d="M7054 2905 c-3 -8 -4 -20 -2 -27 3 -7 7 -1 10 15 6 29 1 36 -8 12z"/>
<path d="M8701 2904 c0 -11 3 -14 6 -6 3 7 2 16 -1 19 -3 4 -6 -2 -5 -13z"/>
<path d="M8465 2880 c-3 -5 -1 -10 4 -10 6 0 11 5 11 10 0 6 -2 10 -4 10 -3 0
-8 -4 -11 -10z"/>
<path d="M8511 2873 c-1 -26 -17 -39 -24 -21 -3 7 -6 3 -6 -9 -1 -13 4 -23 10
-23 6 0 7 -5 2 -12 -4 -7 -7 -24 -6 -38 2 -20 0 -18 -8 8 -5 17 -11 32 -14 32
-6 0 1 -59 8 -66 4 -4 7 -21 8 -38 0 -17 9 9 20 59 10 50 17 99 15 110 -3 18
-3 18 -5 -2z"/>
<path d="M8692 2860 c0 -14 2 -19 5 -12 2 6 2 18 0 25 -3 6 -5 1 -5 -13z"/>
<path d="M8255 2860 c-3 -6 1 -7 9 -4 18 7 21 14 7 14 -6 0 -13 -4 -16 -10z"/>
<path d="M9031 2854 c0 -11 3 -14 6 -6 3 7 2 16 -1 19 -3 4 -6 -2 -5 -13z"/>
<path d="M7042 2840 c0 -14 2 -19 5 -12 2 6 2 18 0 25 -3 6 -5 1 -5 -13z"/>
<path d="M7380 2840 c0 -8 5 -22 10 -30 9 -13 10 -13 10 0 0 8 -5 22 -10 30
-9 13 -10 13 -10 0z"/>
<path d="M7352 2820 c0 -14 2 -19 5 -12 2 6 2 18 0 25 -3 6 -5 1 -5 -13z"/>
<path d="M8677 2768 c-5 -61 8 -217 20 -228 3 -3 3 13 0 36 -5 31 -3 45 12 60
14 16 15 22 5 32 -10 9 -14 6 -17 -16 -2 -15 -4 17 -5 71 0 54 -2 100 -5 103
-2 2 -7 -24 -10 -58z"/>
<path d="M9732 2800 c0 -14 2 -19 5 -12 2 6 2 18 0 25 -3 6 -5 1 -5 -13z"/>
<path d="M7022 2741 c-7 -40 -11 -76 -8 -78 7 -8 28 101 24 127 -2 15 -8 -5
-16 -49z"/>
<path d="M7681 2790 c0 -22 27 -78 28 -59 1 9 -6 30 -14 45 -8 16 -15 22 -14
14z"/>
<path d="M7840 2772 c0 -5 7 -9 15 -9 8 0 12 4 9 9 -3 4 -9 8 -15 8 -5 0 -9
-4 -9 -8z"/>
<path d="M7802 2719 c2 -7 10 -15 17 -17 8 -3 12 1 9 9 -2 7 -10 15 -17 17 -8
3 -12 -1 -9 -9z"/>
<path d="M9701 2693 c-20 -56 -77 -138 -124 -179 -23 -20 -33 -31 -22 -23 11
7 34 26 52 42 17 16 36 27 41 23 12 -7 36 20 28 32 -3 5 3 27 14 49 19 41 35
93 28 93 -2 0 -10 -17 -17 -37z m-31 -117 c0 -3 -4 -8 -10 -11 -5 -3 -10 -1
-10 4 0 6 5 11 10 11 6 0 10 -2 10 -4z"/>
<path d="M8059 2693 c-13 -16 -12 -17 4 -4 16 13 21 21 13 21 -2 0 -10 -8 -17
-17z"/>
<path d="M7295 2691 c-3 -5 -2 -12 3 -15 5 -3 9 1 9 9 0 17 -3 19 -12 6z"/>
<path d="M7321 2674 c0 -11 3 -14 6 -6 3 7 2 16 -1 19 -3 4 -6 -2 -5 -13z"/>
<path d="M8017 2643 c-16 -16 -25 -21 -22 -12 4 10 0 19 -11 23 -11 4 -15 2
-11 -8 7 -18 -12 -36 -31 -28 -9 3 -6 -4 7 -17 13 -13 19 -26 15 -29 -3 -4 -9
-1 -11 6 -3 6 -9 12 -14 12 -6 0 -7 -4 -4 -10 9 -14 -8 -13 -23 2 -7 7 -12 8
-12 2 0 -6 9 -19 20 -29 11 -10 17 -22 14 -26 -3 -5 -3 -9 0 -9 2 0 26 28 52
63 26 34 51 68 57 75 17 21 3 13 -26 -15z m-32 -32 c3 -5 1 -12 -5 -16 -5 -3
-10 1 -10 9 0 18 6 21 15 7z"/>
<path d="M8472 2650 c0 -14 2 -19 5 -12 2 6 2 18 0 25 -3 6 -5 1 -5 -13z"/>
<path d="M7283 2645 c0 -8 4 -15 9 -15 4 0 8 7 8 15 0 8 -4 15 -8 15 -5 0 -9
-7 -9 -15z"/>
<path d="M7456 2647 c3 -10 9 -15 12 -12 3 3 0 11 -7 18 -10 9 -11 8 -5 -6z"/>
<path d="M9707 2646 c-3 -8 -2 -27 3 -43 4 -15 9 -21 10 -13 1 8 4 27 6 43 5
28 -10 38 -19 13z"/>
<path d="M7002 2630 c0 -14 2 -19 5 -12 2 6 2 18 0 25 -3 6 -5 1 -5 -13z"/>
<path d="M7307 2630 c-4 -14 -6 -36 -6 -50 1 -18 4 -14 10 14 10 44 6 75 -4
36z"/>
<path d="M7470 2616 c0 -10 99 -239 100 -229 0 6 -9 32 -20 58 -11 26 -18 51
-14 56 3 5 0 9 -5 9 -6 0 -11 7 -11 15 0 15 -39 95 -46 95 -2 0 -4 -2 -4 -4z"/>
<path d="M8131 2502 c-13 -68 -20 -126 -17 -129 3 -4 6 5 6 18 0 13 5 31 10
39 8 12 10 12 10 -5 1 -18 1 -18 11 -3 5 10 8 59 7 110 l-3 93 -24 -123z"/>
<path d="M8461 2594 c0 -11 3 -14 6 -6 3 7 2 16 -1 19 -3 4 -6 -2 -5 -13z"/>
<path d="M6970 2485 c-12 -64 -21 -118 -18 -120 2 -3 15 47 27 111 13 63 21
117 19 120 -3 2 -16 -47 -28 -111z"/>
<path d="M9050 2575 c0 -4 12 -24 28 -46 35 -49 166 -120 206 -110 5 1 22 -3
38 -8 16 -6 26 -6 23 -2 -3 5 10 9 29 9 19 0 41 4 49 9 10 5 -25 8 -87 8 -94
0 -107 2 -161 30 -37 19 -72 46 -92 73 -18 24 -33 41 -33 37z"/>
<path d="M9700 2559 c0 -5 5 -7 10 -4 6 3 10 8 10 11 0 2 -4 4 -10 4 -5 0 -10
-5 -10 -11z"/>
<path d="M8451 2534 c0 -11 3 -14 6 -6 3 7 2 16 -1 19 -3 4 -6 -2 -5 -13z"/>
<path d="M9956 2489 c-21 -32 -42 -56 -47 -53 -5 3 -6 -2 -3 -10 3 -9 1 -16
-5 -16 -6 0 -11 6 -11 12 0 7 -7 2 -16 -10 -8 -12 -13 -26 -10 -31 15 -23
-179 -159 -210 -147 -8 3 -13 2 -10 -2 3 -5 -15 -9 -41 -9 -33 0 -50 -5 -62
-19 -21 -26 -97 -44 -220 -54 -93 -7 -94 -7 -26 -9 142 -2 300 37 424 106 77
42 214 175 255 246 40 69 28 67 -18 -4z m-66 -89 c0 -5 -5 -10 -11 -10 -5 0
-7 5 -4 10 3 6 8 10 11 10 2 0 4 -4 4 -10z m-270 -184 c0 -2 -13 -9 -30 -15
-16 -5 -30 -6 -30 -1 0 5 8 11 18 13 24 7 42 8 42 3z"/>
<path d="M9630 2530 c0 -5 7 -10 16 -10 8 0 12 5 9 10 -3 6 -10 10 -16 10 -5
0 -9 -4 -9 -10z"/>
<path d="M7904 2488 l-19 -23 23 19 c12 11 22 21 22 23 0 8 -8 2 -26 -19z"/>
<path d="M8435 2470 c-4 -23 -5 -43 -2 -46 2 -3 7 14 11 37 4 23 5 44 2 46 -2
2 -7 -14 -11 -37z"/>
<path d="M7010 2490 c0 -5 5 -10 10 -10 6 0 10 5 10 10 0 6 -4 10 -10 10 -5 0
-10 -4 -10 -10z"/>
<path d="M9510 2470 c-9 -6 -10 -10 -3 -10 6 0 15 5 18 10 8 12 4 12 -15 0z"/>
<path d="M7815 2420 c-3 -5 -1 -10 4 -10 6 0 11 5 11 10 0 6 -2 10 -4 10 -3 0
-8 -4 -11 -10z"/>
<path d="M7826 2388 c-19 -27 -31 -36 -36 -28 -5 8 -10 9 -14 2 -3 -6 -1 -12
6 -14 10 -4 9 -9 -3 -21 -12 -12 -40 -17 -100 -20 l-84 -3 90 -2 90 -1 35 46
c43 58 53 73 48 78 -1 2 -16 -15 -32 -37z"/>
<path d="M8769 2389 c44 -67 129 -141 205 -177 75 -36 84 -38 62 -17 -8 8 -21
15 -28 15 -11 0 -11 2 0 9 11 7 10 10 -3 15 -24 9 -27 8 -19 -6 5 -7 3 -8 -7
-2 -8 4 -20 9 -27 10 -26 4 -90 53 -125 96 -84 100 -91 107 -58 57z"/>
<path d="M8422 2390 c0 -14 2 -19 5 -12 2 6 2 18 0 25 -3 6 -5 1 -5 -13z"/>
<path d="M7795 2390 c-3 -5 -1 -10 4 -10 6 0 11 5 11 10 0 6 -2 10 -4 10 -3 0
-8 -4 -11 -10z"/>
<path d="M7261 2374 c0 -11 3 -14 6 -6 3 7 2 16 -1 19 -3 4 -6 -2 -5 -13z"/>
<path d="M6942 2330 c0 -14 2 -19 5 -12 2 6 2 18 0 25 -3 6 -5 1 -5 -13z"/>
<path d="M7245 2310 c-4 -23 -5 -43 -2 -46 2 -3 7 14 11 37 4 23 5 44 2 46 -2
2 -7 -14 -11 -37z"/>
<path d="M8405 2310 c-4 -23 -5 -43 -2 -46 2 -3 7 14 11 37 4 23 5 44 2 46 -2
2 -7 -14 -11 -37z"/>
<path d="M6926 2258 c-4 -24 -9 -53 -13 -65 l-5 -23 163 2 164 2 -160 6 c-88
3 -155 7 -150 9 6 2 13 3 17 3 3 -1 9 5 12 13 3 9 0 12 -10 8 -13 -5 -15 1 -9
41 4 25 5 46 2 46 -2 0 -7 -19 -11 -42z"/>
<path d="M8955 2260 c-3 -5 -1 -10 4 -10 6 0 11 5 11 10 0 6 -2 10 -4 10 -3 0
-8 -4 -11 -10z"/>
<path d="M8076 2229 c-12 -62 -20 -59 156 -59 89 0 159 2 157 5 -3 2 -73 5
-155 6 l-151 1 4 39 c6 47 -2 52 -11 8z"/>
<path d="M8391 2234 c0 -11 3 -14 6 -6 3 7 2 16 -1 19 -3 4 -6 -2 -5 -13z"/>
<path d="M9037 2224 c-9 -10 2 -24 18 -24 9 0 12 6 9 15 -6 16 -17 19 -27 9z"/>
<path d="M8096 2212 c-3 -6 -1 -14 5 -17 15 -10 25 3 12 16 -7 7 -13 7 -17 1z"/>
<path d="M9502 2206 c7 -8 17 -12 22 -9 4 3 2 9 -5 14 -22 13 -31 11 -17 -5z"/>
<path d="M9168 2153 c7 -3 16 -2 19 1 4 3 -2 6 -13 5 -11 0 -14 -3 -6 -6z"/>
<path d="M5345 1936 c-41 -18 -58 -41 -57 -77 1 -43 25 -65 85 -80 29 -6 58
-16 65 -22 17 -13 15 -44 -4 -51 -26 -10 -81 -7 -109 6 -22 10 -28 9 -36 -3
-14 -23 -5 -33 42 -47 94 -28 169 7 169 78 0 47 -16 60 -101 84 -61 17 -77 36
-53 61 17 17 86 20 114 5 13 -7 19 -6 24 6 9 23 0 32 -42 44 -47 13 -60 12
-97 -4z"/>
<path d="M5936 1940 c-57 -18 -106 -83 -106 -140 0 -130 170 -195 263 -101 26
25 31 40 34 88 4 63 -15 108 -59 137 -30 20 -95 28 -132 16z m115 -69 c63 -64
20 -171 -68 -171 -94 0 -134 114 -61 175 42 35 91 34 129 -4z"/>
<path d="M6783 1943 c-27 -5 -73 -57 -73 -82 0 -35 38 -69 92 -81 62 -15 78
-25 78 -51 0 -23 -36 -33 -88 -25 -74 12 -77 12 -77 -9 0 -15 12 -23 49 -33
88 -25 166 9 166 73 0 44 -28 70 -91 85 -62 15 -83 34 -69 61 12 22 77 27 112
8 16 -9 23 -8 29 2 17 26 9 37 -35 48 -46 11 -54 12 -93 4z"/>
<path d="M7149 1935 c-34 -19 -45 -59 -25 -90 15 -22 14 -26 -14 -54 -80 -79
11 -170 126 -126 35 13 48 14 59 5 12 -10 18 -10 30 0 14 12 14 15 -4 34 -17
19 -18 23 -5 40 8 11 14 25 14 32 0 14 -33 29 -38 16 -1 -5 -9 -17 -16 -27
-12 -16 -14 -16 -35 13 l-21 31 25 25 c27 27 32 62 12 89 -17 24 -76 31 -108
12z m78 -41 c8 -22 -10 -49 -32 -49 -10 0 -22 7 -28 16 -15 24 -1 49 28 49 15
0 28 -7 32 -16z m-13 -143 l37 -38 -30 -13 c-63 -26 -117 25 -75 71 9 10 20
19 24 19 3 0 23 -17 44 -39z"/>
<path d="M4000 1801 l0 -141 25 0 c25 0 25 1 25 88 l0 87 46 -72 c25 -40 51
-73 58 -73 7 0 32 35 57 77 l44 78 3 -93 c3 -90 3 -92 27 -92 l25 0 0 140 0
140 -24 0 c-19 0 -33 -17 -76 -91 -34 -59 -56 -87 -62 -81 -5 5 -31 45 -57 88
-33 55 -54 80 -69 82 -22 3 -22 2 -22 -137z"/>
<path d="M4382 1831 c3 -100 6 -112 28 -136 56 -59 162 -55 200 8 16 26 20 51
20 135 l0 102 -25 0 -25 0 0 -100 c0 -115 -13 -140 -73 -140 -57 0 -71 26 -75
141 -4 98 -5 99 -29 99 l-25 0 4 -109z"/>
<path d="M4700 1800 l0 -140 100 0 c93 0 100 1 100 20 0 18 -7 20 -70 20 l-70
0 0 120 0 120 -30 0 -30 0 0 -140z"/>
<path d="M4890 1920 c0 -17 7 -20 45 -20 l45 0 0 -120 0 -120 25 0 24 0 3 118
3 117 48 3 c39 3 47 6 47 23 0 18 -8 19 -120 19 -113 0 -120 -1 -120 -20z"/>
<path d="M5170 1800 l0 -140 25 0 25 0 0 140 0 140 -25 0 -25 0 0 -140z"/>
<path d="M5560 1800 l0 -140 25 0 c23 0 25 4 25 40 0 40 0 40 38 40 56 0 110
18 127 43 26 37 19 94 -14 128 -28 28 -34 29 -115 29 l-86 0 0 -140z m158 84
c12 -8 22 -26 22 -39 0 -38 -26 -55 -81 -55 l-49 0 0 55 0 55 43 0 c23 0 53
-7 65 -16z"/>
<path d="M6190 1800 l0 -140 25 0 c23 0 25 4 25 40 0 40 0 40 39 40 34 0 42
-5 65 -40 21 -32 32 -40 57 -40 l30 0 -32 46 c-31 45 -31 46 -11 60 28 19 45
74 33 106 -19 51 -56 68 -147 68 l-84 0 0 -140z m158 84 c24 -17 30 -62 10
-82 -7 -7 -36 -12 -65 -12 l-53 0 0 55 0 55 43 0 c23 0 53 -7 65 -16z"/>
<path d="M6450 1920 c0 -17 7 -20 45 -20 l45 0 0 -120 0 -120 25 0 24 0 3 118
3 117 48 3 c39 3 47 6 47 23 0 18 -8 19 -120 19 -113 0 -120 -1 -120 -20z"/>
<path d="M7525 1809 c-33 -73 -61 -136 -63 -140 -2 -5 8 -9 22 -9 18 0 30 9
41 30 15 29 17 30 89 30 73 0 74 0 85 -30 8 -24 16 -30 39 -30 l30 0 -63 138
c-58 127 -65 137 -91 140 -28 3 -31 -2 -89 -129z m114 22 c11 -27 21 -54 21
-58 0 -10 -90 -9 -91 1 -2 13 35 106 42 106 3 0 16 -22 28 -49z"/>
<path d="M7802 1801 l3 -141 83 0 c142 0 197 43 189 148 -3 46 -9 59 -41 90
l-36 37 -101 3 -100 4 3 -141z m167 88 c74 -26 80 -138 10 -175 -16 -8 -48
-14 -74 -14 l-45 0 0 100 0 100 39 0 c21 0 52 -5 70 -11z"/>
<path d="M8115 1883 c80 -196 93 -218 122 -221 27 -3 30 2 89 138 l62 140 -27
0 c-24 0 -30 -10 -69 -95 -23 -53 -42 -100 -42 -105 0 -31 -21 3 -59 95 -40
98 -45 105 -71 105 l-29 0 24 -57z"/>
<path d="M8420 1800 l0 -140 105 0 c98 0 105 1 105 20 0 18 -7 20 -80 20 l-80
0 0 40 0 40 70 0 c63 0 70 2 70 20 0 17 -8 19 -67 22 l-68 3 -3 38 -3 37 80 0
c74 0 81 2 81 20 0 19 -7 20 -105 20 l-105 0 0 -140z"/>
<path d="M8690 1800 l0 -140 25 0 c24 0 24 2 27 93 l3 92 75 -92 c53 -65 82
-92 98 -92 22 -1 22 0 22 139 l0 140 -25 0 c-24 0 -24 -2 -27 -92 l-3 -92 -74
92 c-55 68 -81 92 -98 92 -23 0 -23 -1 -23 -140z"/>
<path d="M8980 1921 c0 -17 8 -20 47 -23 l47 -3 -1 -117 -1 -118 29 0 29 0 0
120 0 120 45 0 c38 0 45 3 45 20 0 19 -7 20 -120 20 -112 0 -120 -1 -120 -19z"/>
<path d="M9260 1829 c0 -108 1 -111 28 -139 36 -36 96 -47 145 -26 57 23 70
53 75 172 l5 104 -32 0 -31 0 0 -103 c0 -117 -10 -137 -68 -137 -59 0 -72 26
-72 140 l0 100 -25 0 -25 0 0 -111z"/>
<path d="M9580 1800 l0 -140 25 0 c23 0 25 4 25 40 0 40 0 40 39 40 34 0 42
-5 65 -40 21 -32 32 -40 56 -40 l30 0 -31 44 -31 43 26 26 c38 38 36 98 -3
138 -28 28 -34 29 -115 29 l-86 0 0 -140z m158 84 c28 -20 30 -69 3 -84 -11
-5 -40 -10 -65 -10 l-46 0 0 55 0 55 43 0 c23 0 53 -7 65 -16z"/>
<path d="M9870 1800 l0 -140 110 0 c103 0 110 1 110 20 0 17 -8 19 -82 22
l-83 3 -3 38 -3 37 70 0 c64 0 71 2 71 20 0 17 -8 19 -67 22 l-68 3 0 35 0 35
78 3 c69 3 77 5 77 22 0 19 -7 20 -105 20 l-105 0 0 -140z"/>
<path d="M9255 1550 c-15 -16 -15 -20 -3 -20 8 0 23 9 33 20 15 16 15 20 3 20
-8 0 -23 -9 -33 -20z"/>
<path d="M4472 1398 l3 -111 42 -4 c99 -9 163 35 163 111 0 77 -52 116 -155
116 l-56 0 3 -112z m152 61 c20 -16 26 -29 26 -60 0 -61 -46 -95 -116 -87 -28
3 -29 4 -32 72 -2 38 -1 75 2 83 9 21 89 17 120 -8z"/>
<path d="M4732 1398 l3 -113 78 -3 c64 -2 77 0 77 13 0 12 -13 15 -65 15 l-65
0 0 35 0 34 57 3 c81 4 85 28 4 28 l-61 0 0 35 0 35 65 0 c51 0 65 3 65 15 0
12 -16 15 -80 15 l-81 0 3 -112z"/>
<path d="M4940 1395 c0 -93 3 -115 14 -115 10 0 16 13 18 36 3 35 4 36 49 39
25 1 55 8 67 14 45 24 39 104 -8 128 -14 7 -51 13 -82 13 l-58 0 0 -115z m134
69 c38 -37 4 -84 -61 -84 l-43 0 0 50 0 50 44 0 c27 0 51 -6 60 -16z"/>
<path d="M5208 1493 c-35 -22 -53 -56 -53 -104 0 -31 7 -46 33 -72 28 -27 39
-32 82 -32 42 0 54 5 81 31 53 53 42 140 -21 177 -36 21 -87 21 -122 0z m122
-38 c51 -54 12 -145 -61 -145 -69 0 -106 95 -57 147 30 32 87 31 118 -2z"/>
<path d="M5434 1497 c-10 -28 1 -210 14 -215 8 -2 12 8 12 32 0 35 1 36 39 36
34 0 42 -5 61 -35 12 -19 28 -35 36 -35 20 0 17 11 -10 45 l-24 30 24 22 c42
39 28 103 -27 122 -45 15 -118 14 -125 -2z m130 -33 c39 -39 7 -84 -60 -84
l-44 0 0 50 0 50 44 0 c27 0 51 -6 60 -16z"/>
<path d="M5630 1495 c0 -11 11 -15 40 -15 l40 0 0 -95 c0 -78 3 -95 15 -95 12
0 15 17 15 95 l0 95 35 0 c24 0 35 5 35 15 0 12 -17 15 -90 15 -73 0 -90 -3
-90 -15z"/>
<path d="M5852 1398 l3 -113 74 0 c50 0 76 4 78 13 4 9 -13 12 -61 12 l-66 0
0 35 0 35 55 0 c42 0 55 3 55 15 0 12 -13 15 -55 15 l-55 0 0 35 0 34 63 3
c88 4 77 22 -16 26 l-78 3 3 -113z"/>
<path d="M6357 1406 c-26 -57 -47 -109 -47 -115 0 -21 20 -11 35 19 15 28 19
30 74 30 56 0 59 -1 71 -30 15 -36 45 -43 34 -8 -19 62 -95 208 -107 208 -8 0
-33 -44 -60 -104z m76 37 c8 -16 18 -38 21 -50 7 -22 4 -23 -37 -23 l-45 0 21
50 c11 28 22 50 24 50 1 0 9 -12 16 -27z"/>
<path d="M6530 1500 c0 -13 81 -203 91 -215 14 -15 34 13 78 114 45 103 47
111 28 111 -7 0 -30 -41 -51 -91 -21 -50 -42 -87 -46 -82 -4 4 -22 45 -41 91
-18 45 -39 82 -46 82 -7 0 -13 -4 -13 -10z"/>
<path d="M6780 1396 l0 -114 77 1 c51 1 78 6 80 15 4 9 -13 12 -61 12 l-66 0
0 35 0 35 55 0 c42 0 55 3 55 15 0 12 -13 15 -55 15 l-55 0 0 35 0 35 60 0
c47 0 60 3 60 15 0 12 -15 15 -75 15 l-75 0 0 -114z"/>
<path d="M6992 1398 c3 -130 20 -149 28 -32 l5 77 64 -82 c35 -45 69 -80 75
-78 7 2 11 43 11 113 0 90 -3 109 -15 109 -12 0 -15 -15 -14 -78 1 -43 -2 -77
-6 -75 -4 2 -35 38 -69 81 -34 42 -66 77 -71 77 -7 0 -10 -41 -8 -112z"/>
<path d="M7210 1495 c0 -11 11 -15 40 -15 l40 0 0 -101 c0 -76 3 -100 13 -97
8 3 13 35 15 101 l3 97 40 0 c28 0 39 4 37 13 -3 8 -34 13 -96 15 -77 2 -92 0
-92 -13z"/>
<path d="M7430 1422 c0 -94 12 -122 61 -137 33 -11 87 4 104 28 20 28 22 201
3 195 -9 -3 -15 -35 -18 -92 -5 -93 -13 -106 -61 -106 -45 0 -59 27 -59 118 0
66 -3 82 -15 82 -12 0 -15 -16 -15 -88z"/>
<path d="M7680 1395 c0 -89 3 -116 13 -113 6 3 13 19 15 36 3 29 7 32 36 32
27 0 39 -7 60 -35 35 -45 54 -36 25 11 l-21 35 21 15 c15 11 21 26 21 53 0 55
-26 74 -106 79 l-64 4 0 -117z m121 75 c12 -7 19 -21 19 -40 0 -35 -23 -50
-74 -50 l-36 0 0 50 0 50 36 0 c19 0 44 -5 55 -10z"/>
<path d="M7927 1403 c-52 -119 -53 -123 -33 -123 8 0 19 14 25 30 10 29 12 30
71 30 59 0 61 -1 71 -30 10 -26 39 -43 39 -22 0 8 -80 189 -93 210 -18 28 -36
7 -80 -95z m83 27 c11 -21 20 -44 20 -50 0 -5 -20 -10 -44 -10 l-45 0 22 50
c12 27 23 50 24 50 2 0 12 -18 23 -40z"/>
<path d="M8412 1398 c2 -78 7 -113 16 -116 8 -2 12 8 12 32 0 35 1 36 35 36
54 0 103 24 111 54 17 68 -27 106 -121 106 l-56 0 3 -112z m130 65 c40 -36 8
-83 -59 -83 l-43 0 0 50 0 50 42 0 c24 0 49 -7 60 -17z"/>
<path d="M8646 1405 c-25 -58 -46 -110 -46 -115 0 -21 20 -9 35 20 15 28 19
30 73 30 55 0 59 -2 73 -30 9 -20 18 -27 27 -21 16 10 -80 221 -101 221 -8 0
-33 -44 -61 -105z m84 19 c11 -25 20 -48 20 -50 0 -2 -20 -4 -44 -4 l-44 0 21
50 c11 28 22 50 24 50 2 0 13 -21 23 -46z"/>
<path d="M8872 1493 c-52 -45 -29 -93 54 -114 25 -7 48 -18 51 -26 14 -35 -52
-57 -99 -32 -12 7 -24 7 -29 2 -15 -15 16 -35 64 -40 36 -4 48 -1 72 20 26 22
28 28 20 53 -8 23 -21 33 -60 46 -54 18 -72 36 -61 63 5 14 15 17 56 13 54 -5
73 4 41 21 -30 17 -86 13 -109 -6z"/>
<path d="M9058 1503 c-2 -5 -2 -57 0 -116 2 -78 7 -107 15 -104 8 2 13 40 15
115 2 93 0 112 -12 112 -8 0 -16 -3 -18 -7z"/>
<path d="M9204 1500 c-57 -23 -84 -117 -48 -168 53 -76 176 -61 205 25 32 97
-62 182 -157 143z m97 -33 c46 -35 50 -88 10 -128 -57 -56 -141 -23 -141 56 0
66 81 111 131 72z"/>
<path d="M9420 1394 c0 -88 3 -115 13 -112 7 3 14 33 17 83 l5 78 64 -82 c35
-45 69 -80 75 -78 7 2 11 43 11 113 0 87 -3 109 -14 109 -11 0 -14 -16 -12
-77 1 -43 -1 -78 -6 -78 -4 1 -37 37 -72 80 -35 44 -67 80 -72 80 -5 0 -9 -52
-9 -116z"/>
<path d="M6144 1396 c-15 -12 -17 -18 -8 -33 16 -27 51 -29 59 -3 6 20 -9 50
-24 50 -4 0 -16 -6 -27 -14z"/>
<path d="M8220 1395 c-17 -21 -8 -50 17 -53 30 -4 49 31 27 52 -19 20 -28 20
-44 1z"/>
</g>
</svg>
